<svg xmlns="http://www.w3.org/2000/svg" viewBox="0 0 231.25 209.97"><defs><style>.cls-1{fill:#fff;fill-rule:evenodd;}</style></defs><g id="Layer_2" data-name="Layer 2"><g id="New_Layer" data-name="New Layer"><path class="cls-1" d="M105.6,1.2c-.8.8-1.2,5.8-1.2,15.9,0,12.1.3,15,1.6,16.3,1.9,1.9,2.6,2,4.2.4.8-.8,1.2-6,1.2-16.9,0-13.4-.2-15.8-1.6-16.3C107.6-.2,107-.2,105.6,1.2Z"/><path class="cls-1" d="M119.6,1.2c-.8.8-1.2,5.9-1.2,16.4,0,16.5.7,18.7,4.9,16.4,2-1,2.1-1.9,2.1-16.3,0-15.1-.5-17.7-3.5-17.7A4,4,0,0,0,119.6,1.2Z"/><path class="cls-1" d="M32.7,29.7c-.7.2-1.3,1.5-1.3,2.8,0,1.8,2.8,4.6,12.1,11.9,10.2,8.2,12.3,9.4,14,8.6,3.9-2.1,2.1-4.7-9.6-14C35.9,29.6,34.7,28.8,32.7,29.7Z"/><path class="cls-1" d="M185.5,38.6c-12.1,9.5-13.7,11.8-10.6,14.4,1.8,1.5,1.6,1.6,15.3-9.3,6.2-5,11.2-9.7,11.2-10.6,0-1.7-1.8-4.1-3.1-4.1C197.9,29,192.1,33.3,185.5,38.6Z"/><path class="cls-1" d="M95,33.6a16.16,16.16,0,0,0-.6,1.9c0,.6,17.2,20.9,18.3,21.6,2,1.4,4.5-.7,13.5-10.7,8-9,9.1-10.7,8.2-12.4-1.9-3.6-4.6-2.2-12,6-4,4.4-7.5,8-7.9,8s-3.8-3.6-7.5-8C100.1,31.9,96.4,29.9,95,33.6Z"/><path class="cls-1" d="M23.4,41.5a3.22,3.22,0,0,0-.7,2.9C23.6,46.6,45.6,64,47.5,64c2.3,0,4.2-2.6,3.2-4.4C49.5,57.5,27.4,40,25.9,40A4.22,4.22,0,0,0,23.4,41.5Z"/><path class="cls-1" d="M193.4,49.5c-6.3,5.1-11.6,9.8-11.8,10.4-.5,1.6,1.7,4.1,3.7,4.1s25.1-18.7,25.1-20.4a4.08,4.08,0,0,0-3.9-3.5C205.6,40.1,199.7,44.3,193.4,49.5Z"/><path class="cls-1" d="M63.1,42.4c-1.2,1.3-1.1,2.9.6,12.1,1.1,5.8,1.7,10.8,1.5,11.1a93.68,93.68,0,0,1-10.4,1.1c-11.3.7-13.7,1.5-13.2,4.6.3,2.2.6,2.2,14.8,1.9,10.9-.2,14.9-.6,15.9-1.7,1.3-1.2,1.1-3.2-1-14.6C68.6,41.8,66.8,38.7,63.1,42.4Z"/><path class="cls-1" d="M165.5,41.9c-1.4.9-6,21.2-6.1,26.7,0,1.8.6,3.4,1.4,3.7s7.7.9,15.4,1.3l14,.7.7-2.3c1.1-3.6-1.3-4.6-12.6-5.3-5.6-.4-10.4-.9-10.7-1.2s.2-4.5,1.1-9.4c2.1-10.9,2.1-13.7.1-14.5S167.2,40.8,165.5,41.9Z"/><path class="cls-1" d="M104.1,63.6c-19.9,10.3-14.2,40.4,8.1,43.1a23.1,23.1,0,0,0,25.5-22.8,23.36,23.36,0,0,0-14.6-21.7C118.3,60.1,109.5,60.8,104.1,63.6Zm20.2,7.3a15.27,15.27,0,0,1,6.4,13.2c-.2,14.2-17.2,20.9-27.3,10.8-7.5-7.5-5.3-20.4,4.2-25.3C112.1,67.3,120.1,67.9,124.3,70.9Z"/><path class="cls-1" d="M32.5,96.4c-2,2.4-1,4,7.6,11.4l8.3,7L40.6,122c-4.2,4-8,7.8-8.5,8.5a3,3,0,0,0,2.7,4.5c2.5,0,22-17.2,22.4-19.9.2-1.3-2.9-4.5-10.3-10.7-5.8-4.9-11.1-9-11.9-9.2A3,3,0,0,0,32.5,96.4Z"/><path class="cls-1" d="M185,104c-6,5.2-10.6,9.9-10.6,10.9,0,2.2,19.7,20.1,22.1,20.1s4.2-2.6,3.2-4.3c-.4-.8-4.2-4.5-8.3-8.3s-7.5-7.1-7.5-7.4,3.2-3.3,7-6.6c9.3-8,10.1-9.1,8.8-11.2a4.34,4.34,0,0,0-2.5-2C196.3,95,190.9,99,185,104Z"/><path class="cls-1" d="M.5,106.8a3.63,3.63,0,0,0,0,3.5c.9,1.5,2.9,1.7,16.9,1.7,15.1,0,15.9-.1,16.5-2,1.4-4.4-.7-5-17.1-5C3.1,105,1.4,105.2.5,106.8Z"/><path class="cls-1" d="M198.4,106.5a4.55,4.55,0,0,0-.8,3.2c.3,1.6,1.7,1.8,16.8,1.8h16.5l.3-2.4c.2-1.3-.2-2.8-1-3.2s-7.9-.9-15.9-.9C202.7,105,199.4,105.3,198.4,106.5Z"/><path class="cls-1" d="M88.9,110.9A27.74,27.74,0,0,0,71,126c-1.9,4-2.1,6.7-2.4,26.6-.3,18.3-.1,22.2,1.1,23.2s12.4,1.2,45.8,1l44.4-.3.3-22c.3-26.5-.1-28.8-7.2-36.1-7.6-7.7-10.8-8.4-38.5-8.3C102.1,110.2,90.6,110.5,88.9,110.9Zm53,8c4.7,2.2,8.9,6.4,10.4,10.4.7,1.6,1.1,10.8,1.1,21.8V170h-11V155.6c0-11.9-.3-14.6-1.6-15.7a2.33,2.33,0,0,0-3.2-.2c-1.4.9-1.7,3.3-2,15.7l-.3,14.6H94.5l-.3-14.6c-.3-12.4-.6-14.8-2-15.7a2.33,2.33,0,0,0-3.2.2c-1.3,1.1-1.6,3.8-1.6,15.7V170H75.2l.4-19.3c.3-18.8.3-19.3,3-23.9a17.08,17.08,0,0,1,8-7.2c5.1-2.6,5.4-2.6,28.2-2.6C135.1,117,138.4,117.3,141.9,118.9Z"/><path class="cls-1" d="M.5,120.9a2.86,2.86,0,0,0,.2,3.5c1.1,1.4,3.2,1.6,16.6,1.4,12.9-.3,15.6-.6,16.4-1.9a4.29,4.29,0,0,0,.4-3.3c-.6-1.4-2.7-1.6-16.6-1.6C2.9,119,1.4,119.2.5,120.9Z"/><path class="cls-1" d="M197.7,120.6a4.29,4.29,0,0,0,.4,3.3c.9,1.4,3.4,1.6,16.9,1.6h15.9v-6l-16.3-.3C200.2,119,198.3,119.1,197.7,120.6Z"/><path class="cls-1" d="M47.8,144c-16.4,3.7-31,9.8-38.6,16-5.1,4.2-8.2,10.9-7.3,15.9,2.6,15.3,32.7,27.9,77.7,32.6,16.9,1.7,52,2,68.3.5,40.8-3.8,70.6-13.7,79.3-26.6,3-4.3,3.3-5.5,2.9-9.7-1.1-11.5-15.6-21-42.7-27.9-14-3.5-16.5-3.4-16.5.6,0,2.8.2,2.9,10,5.1,19.1,4.3,31.3,9.5,38.2,16.1,6.8,6.4,5.4,11.9-4.6,18.4-17.2,11-55.6,18-98.5,18-23.1,0-35.2-.9-54.3-4.1C33,194.2,11.2,184.4,9,175.4c-2.2-8.8,13.8-18.3,41.9-24.8,8-1.9,9-2.4,9.3-4.5a3.24,3.24,0,0,0-3.3-4C56.4,142.1,52.3,143,47.8,144Z"/><path class="cls-1" d="M48.9,158.4c-12.6,4.1-17.3,7.2-19.5,13-.9,2.3-.7,3.5.8,6.4,12.2,23.5,144.3,25.8,168,3,2.5-2.5,3.2-4,3.2-6.9,0-6.9-6.6-11.8-21-15.8-8.2-2.3-10.2-1.9-9.8,1.7.3,2.2,1.4,2.8,9.3,5.4,10.7,3.4,15.5,6.7,13.9,9.5-2.8,4.8-18.6,9.9-40.4,13-19.1,2.6-60.7,2.4-79.7-.6-19.9-3-36-8.4-37.6-12.5-1-2.5,4.4-6,13.4-9,11.2-3.7,12.5-4.9,9.3-8C56.9,155.6,57.4,155.6,48.9,158.4Z"/></g></g></svg>