<svg xmlns="http://www.w3.org/2000/svg" viewBox="0 0 285.51 307.08"><defs><style>.cls-1{fill:#fff;fill-rule:evenodd;}</style></defs><g id="Layer_2" data-name="Layer 2"><g id="New_Layer" data-name="New Layer"><path class="cls-1" d="M139.3.48c-.9.9-.9,34.6-.1,36.8.4,1,1.8,1.6,3.5,1.6,3.8,0,4-1.1,3.7-21.5l-.3-17-3-.3C141.4-.12,139.7.08,139.3.48Z"/><path class="cls-1" d="M70.8,19.08a4.47,4.47,0,0,0-1.1,3.2c0,2.7,15.8,29.6,18.1,31,1.4.8,2.2.6,3.9-1.1l2.2-2.1-3.8-6.9C76.9,19.08,74.2,15.68,70.8,19.08Z"/><path class="cls-1" d="M204.3,27.08c-3,5.1-7.2,12.4-9.2,16.1l-3.8,6.9,2.2,2.1c1.7,1.7,2.5,1.9,3.9,1.1,2.3-1.5,18.1-28.4,18.2-31a5,5,0,0,0-1.2-3.2C211.7,16.38,209.7,17.88,204.3,27.08Z"/><path class="cls-1" d="M124.1,53.58a90.89,90.89,0,0,0-61.7,47.8c-8.8,17.4-11.6,43.5-6.7,63,1.5,6.2,6.8,16.7,11.1,22.1,1.8,2.2,6.1,7.6,9.6,11.9,9.9,12.3,14.6,22.8,18.1,40.7a93.05,93.05,0,0,0,2.5,10.7c.5.8,13.7,1.1,45.1,1.1,37.1,0,44.6-.2,45.8-1.4.8-.8,1.7-3.8,2-6.8a113.09,113.09,0,0,1,7.2-26.2c3.2-7.3,6.8-12.5,16.8-24.6,13.7-16.5,17.7-27.6,17.8-49,0-13.4-.9-19.7-4.3-30-9.7-29.8-35.7-53-66.8-59.5C151.6,51.48,133.3,51.58,124.1,53.58Zm43.4,10.2a77.89,77.89,0,0,1,30.7,18.4c17.2,16.2,25.4,35.5,25.4,59.2,0,19.5-3.4,29.7-14.1,42.9-11.7,14.5-15.1,19.1-18,24.8a114.11,114.11,0,0,0-8.9,27l-1.2,6.8H103.6l-.4-2.3c-.3-1.2-1-4.9-1.7-8.2-3-15.9-9.9-28.9-23.8-45.5-12.2-14.5-16.1-25.3-16.1-45.3,0-23.9,8.5-43.6,25.9-59.9,16.4-15.4,34.2-22,57.6-21.4C156.5,60.58,159.2,61,167.5,63.78Z"/><path class="cls-1" d="M179.1,87.28a16.13,16.13,0,0,0-4.9,3.5c-1.1,1.1-2.5,2.1-3.3,2.1-3.1,0-14.2,4.4-20.5,8.1-3.6,2.1-7.2,3.9-7.8,3.9s-4.2-1.8-7.8-3.9c-8.7-5.1-17.7-8.1-24.7-8.1-19.1,0-22.5,17.7-8.2,42.4,3.9,6.7,3.9,7,2.3,9.5-7.4,11.5-12.3,26.1-11.1,33.1,1.8,10.4,10.2,15.3,22.6,13,3-.5,10.3-3.4,16.3-6.4l10.9-5.5,6.6,3.8c8.6,5,17,8,24,8.7s13.5-2.3,16.5-7.5c4.1-7.1,1.5-20.9-6.5-34.6l-4-6.9,5.4-10.6c3-5.8,5.8-12.6,6.2-15a18,18,0,0,1,3.6-7.8c6.7-7.6,4.4-17.9-4.8-21.8A12.07,12.07,0,0,0,179.1,87.28Zm10.6,9.8a7.3,7.3,0,0,1,.5,4.4c-1.6,6.4-11,4.6-10.4-1.9C180.3,94.28,187.3,92.48,189.7,97.08Zm-63.8,8.6c4.8,2.2,8.7,4.3,8.7,4.6s-5.4,5.9-12,12.5l-12,12.1-4.2-8.8c-5.3-11-6.4-19.6-2.8-23.2S115,100.38,125.9,105.68Zm47,.3a12.86,12.86,0,0,0,6.4,6.4c5,2.3,5,2.2-.8,14.2l-4,8.2-11.9-11.9c-6.6-6.6-12-12.2-12-12.5,0-1.1,18.9-9.8,19.8-9A36.32,36.32,0,0,1,172.9,106Zm-16.7,22.3c6.8,6.8,12.4,12.8,12.4,13.4,0,2.9-23.1,26.2-26,26.2s-26-23.5-26-26.3c0-1.4,24.6-25.7,26-25.7C143.3,115.88,149.4,121.48,156.2,128.28Zm-32.9,33.6,12,11.9-6.7,3.5c-7.8,4.1-17.4,6.9-21.1,6.1-7-1.5-8.1-9.2-3.2-21,1.6-3.8,6.3-12.5,6.7-12.5C111.1,149.88,116.6,155.28,123.3,161.88Zm53.7-7.4c7.2,12.9,8.5,23.9,3.3,27.8-2.5,1.8-3.2,1.9-8.5.8-3.1-.6-9.4-3-13.9-5.2l-8.1-4L161.4,162c6.5-6.5,12-11.9,12.4-11.9S175.6,152,177,154.48Z"/><path class="cls-1" d="M137.1,129.78c-10.2,4.6-11,17.5-1.6,23.8a12.33,12.33,0,0,0,14.2,0c9.6-6.4,8.4-19.9-2.1-24.1C142.6,127.48,142,127.48,137.1,129.78Zm10,9.5c3,4.5-1.3,9.8-6.6,8.1-5.5-1.8-3.8-10.5,2.1-10.5A5,5,0,0,1,147.1,139.28Z"/><path class="cls-1" d="M19.9,70c-2.1,2.1-1.5,4.6,1.5,6.7,1.5,1,8.5,5.2,15.6,9.2,13.6,7.8,15.8,8.2,16.4,2.8.3-2.3-1-3.4-14-10.9C24.2,69,21.8,68.08,19.9,70Z"/><path class="cls-1" d="M246.3,77.48c-13.5,7.8-14.8,8.8-14.5,11.2.7,5.5,2.7,5.1,18.4-4,8.2-4.7,15.3-9.3,15.9-10.2,1.3-2-.4-5-3.1-5.4C262,69,254.4,72.78,246.3,77.48Z"/><path class="cls-1" d="M.6,139.88a3.63,3.63,0,0,0,0,4c1,1.9,2.1,2,19.5,2H38.6l.6-2.5c1.3-5.1-.2-5.5-19.7-5.5C2.7,137.88,1.6,138,.6,139.88Z"/><path class="cls-1" d="M246.6,139.38a4.76,4.76,0,0,0-.6,4l.6,2.5h18.5c17.2,0,18.5-.1,19.5-1.9,1.3-2.5,1.3-2.7-.6-4.5C281.8,137.18,248.5,137.08,246.6,139.38Z"/><path class="cls-1" d="M33.6,200.28c-12.1,7-14.6,8.8-14.8,10.9a3.24,3.24,0,0,0,1.8,3.7c1.8,1,3.9.1,14.8-6.1,17.7-10,18.4-10.6,18-13.8C52.9,190.28,49.3,191.18,33.6,200.28Z"/><path class="cls-1" d="M232.3,192.58c-.4.3-.7,1.7-.7,3,0,2.5,1,3.3,19.2,13.7,9.9,5.7,12,6.5,13.8,5.6a4.26,4.26,0,0,0,2-3.5c0-2-2.2-3.7-14.7-10.9C238.2,192.58,234,190.88,232.3,192.58Z"/><path class="cls-1" d="M105.2,264.48a3.43,3.43,0,0,0,0,5.8c1.3,1.4,6.1,1.6,37.4,1.6s36.1-.2,37.4-1.6a3.43,3.43,0,0,0,0-5.8c-1.3-1.4-6.1-1.6-37.4-1.6S106.5,263.08,105.2,264.48Z"/><path class="cls-1" d="M112.8,282.08a3.9,3.9,0,0,0,.2,5.7c.9.8,9.7,1.1,30.1.9,26.2-.3,28.9-.5,29.9-2.1a2.85,2.85,0,0,0,0-3.5c-1-1.5-3.8-1.7-30-2C121.3,280.88,113.7,281.18,112.8,282.08Z"/><path class="cls-1" d="M119.2,299.48a3.43,3.43,0,0,0,0,5.8c2.3,2.4,44.5,2.4,46.8,0a3.43,3.43,0,0,0,0-5.8C163.7,297.08,121.5,297.08,119.2,299.48Z"/></g></g></svg>