<svg id="Layer_1" data-name="Layer 1" xmlns="http://www.w3.org/2000/svg" viewBox="0 0 160.9 92.1"><defs><style>.cls-1{fill:#3fb297;}.cls-2,.cls-3,.cls-6{isolation:isolate;}.cls-2,.cls-3{font-size:6px;font-family:ArialMT, Arial;}.cls-2,.cls-3,.cls-5,.cls-6{fill:#fff;}.cls-3{letter-spacing:-0.02em;}.cls-4{fill:#261140;}.cls-6{font-size:7px;font-family:Arial-BoldMT, Arial;font-weight:700;}</style></defs><g id="Layer_2" data-name="Layer 2"><g id="Layer_1-2" data-name="Layer 1-2"><path class="cls-1" d="M152.65.1H8.35C3.75.1.05,4.3.05,9.5V82.9c0,5.2,3.7,9.3,8.3,9.3h144.3c4.6,0,8.3-4.2,8.3-9.3V9.4C161.05,4.2,157.25.1,152.65.1Z" transform="translate(-0.05 -0.1)"/><text class="cls-2" transform="translate(4.26 80.98)">Remcosol</text><text class="cls-2" transform="translate(30.93 80.98)"> </text><text class="cls-3" transform="translate(32.49 80.98)">T</text><text class="cls-2" transform="translate(35.49 80.98)">echnologies</text><path class="cls-4" d="M89.55,32.1h2.3a6,6,0,0,1,6,6V91.7a.46.46,0,0,1-.4.5H83.55V38.1A6,6,0,0,1,89.55,32.1Z" transform="translate(-0.05 -0.1)"/><path class="cls-5" d="M105.15,42.9h.7a6.13,6.13,0,0,1,6,6.2V91.7a.46.46,0,0,1-.4.5H99.15V49.1a6.06,6.06,0,0,1,6-6.2Z" transform="translate(-0.05 -0.1)"/><path class="cls-4" d="M119.35,39.3h.7a6,6,0,0,1,6,6V91.6a.46.46,0,0,1-.4.5h-12.3V45.3A6,6,0,0,1,119.35,39.3Z" transform="translate(-0.05 -0.1)"/><path class="cls-4" d="M133.55,27.4h.7a6,6,0,0,1,6,6h0V91.5a.46.46,0,0,1-.4.5h-12.3V33.4A6,6,0,0,1,133.55,27.4Z" transform="translate(-0.05 -0.1)"/><path class="cls-5" d="M147.85,33.6h.7a6,6,0,0,1,6,6V91.7a.46.46,0,0,1-.4.5h-12.3V39.6A6,6,0,0,1,147.85,33.6Z" transform="translate(-0.05 -0.1)"/><text class="cls-2" transform="translate(4.26 80.98)">Remcosol</text><text class="cls-2" transform="translate(30.93 80.98)"> </text><text class="cls-3" transform="translate(32.49 80.98)">T</text><text class="cls-2" transform="translate(35.49 80.98)">echnologies</text><text class="cls-2" transform="translate(4.26 80.98)">Remcosol</text><text class="cls-2" transform="translate(30.93 80.98)"> </text><text class="cls-3" transform="translate(32.49 80.98)">T</text><text class="cls-2" transform="translate(35.49 80.98)">echnologies</text><text class="cls-6" transform="translate(4.71 40.32)">Lead the</text><text class="cls-6" transform="translate(35.14 40.32)"> </text><text class="cls-6" transform="translate(36.92 40.32)">AI Innovation</text><text class="cls-6" transform="translate(4.71 49.32)">today</text></g></g></svg>