<?xml version="1.0" standalone="no"?>
<!DOCTYPE svg PUBLIC "-//W3C//DTD SVG 20010904//EN"
 "http://www.w3.org/TR/2001/REC-SVG-20010904/DTD/svg10.dtd">
<svg version="1.0" xmlns="http://www.w3.org/2000/svg"
 width="2400.000000pt" height="1472.000000pt" viewBox="0 0 2400.000000 1472.000000"
 preserveAspectRatio="xMidYMid meet">

<g transform="translate(0.000000,1472.000000) scale(0.100000,-0.100000)"
fill="#000000" stroke="none">
<path d="M16071 14703 c-19 -10 -44 -31 -55 -46 l-21 -28 -2 -1797 c-2 -1394
-6 -1802 -15 -1820 -14 -26 -57 -52 -86 -52 -10 0 -133 66 -273 146 -398 230
-391 226 -469 232 -61 4 -75 1 -132 -25 -88 -42 -2348 -1350 -2374 -1374 -12
-11 -34 -43 -50 -72 l-29 -52 0 -1400 0 -1400 23 -42 c45 -86 -103 5 1607
-984 590 -341 836 -478 877 -488 108 -29 97 -34 892 425 397 230 924 534 1171
676 497 286 531 311 560 411 13 47 15 433 13 3402 l-3 3350 -21 46 c-33 72
-80 108 -286 223 -1053 588 -1219 678 -1255 682 -25 3 -50 -1 -72 -13z m-501
-5545 c289 -167 405 -240 411 -256 5 -13 9 -234 9 -492 0 -431 -1 -469 -17
-488 -24 -27 -812 -482 -835 -482 -25 0 -28 2 -452 247 -204 118 -379 223
-388 235 -17 19 -18 57 -18 497 0 366 3 481 13 494 6 9 194 123 417 252 317
184 411 234 431 231 14 -3 207 -110 429 -238z"/>
<path d="M2509 11397 c-71 -27 -2374 -1359 -2412 -1395 -20 -20 -47 -57 -60
-82 l-22 -45 4 -1825 c4 -2030 -2 -1873 72 -1910 21 -11 53 -20 71 -19 25 0
218 106 753 412 624 358 724 418 752 455 65 85 63 56 63 1010 0 614 3 876 11
902 7 21 28 59 48 86 31 41 78 71 370 240 184 107 350 197 368 200 19 4 60 4
92 2 54 -4 80 -17 377 -189 175 -101 338 -201 361 -222 23 -21 52 -60 65 -85
l23 -47 5 -905 5 -905 27 -45 c14 -25 39 -57 55 -72 15 -14 348 -209 739 -432
539 -308 718 -406 743 -406 47 0 100 28 122 64 19 30 19 83 17 1861 l-3 1830
-23 46 c-12 25 -38 61 -56 80 -30 30 -2167 1269 -2356 1367 -76 39 -156 50
-211 29z"/>
<path d="M21288 11337 c-157 -83 -2326 -1342 -2351 -1366 -16 -14 -41 -46 -55
-71 l-27 -45 0 -1405 0 -1405 22 -41 c12 -22 39 -56 61 -76 21 -19 317 -194
658 -388 340 -194 863 -492 1160 -661 376 -214 558 -313 594 -321 98 -23 102
-21 872 407 399 222 723 409 735 424 46 54 42 124 -10 176 -18 17 -184 118
-370 225 -1421 814 -1992 1148 -2011 1173 -21 28 -21 37 -21 492 0 451 1 464
20 491 13 16 173 115 410 251 374 214 392 223 435 220 37 -4 115 -44 415 -216
204 -117 382 -224 398 -239 15 -14 32 -42 37 -61 6 -21 10 -184 10 -379 0
-287 2 -348 15 -372 21 -40 88 -74 134 -67 39 5 1397 791 1465 848 22 18 50
57 65 88 l26 56 0 380 c0 376 0 381 -23 431 -34 76 -78 112 -277 227 -266 154
-1516 878 -1845 1069 -157 91 -300 170 -319 176 -19 7 -62 12 -97 12 -51 0
-74 -6 -126 -33z"/>
<path d="M8785 11349 c-34 -9 -39 -12 -1395 -794 -715 -412 -966 -562 -1001
-596 -80 -79 -80 -72 -77 -683 l3 -529 335 -213 c184 -117 551 -349 815 -517
633 -402 1442 -916 2060 -1309 275 -174 539 -342 588 -373 l87 -55 538 309
c295 170 556 326 580 346 23 20 53 56 65 78 l22 42 3 1380 c3 1546 8 1435 -71
1520 -34 36 -268 175 -1197 711 -635 367 -1175 673 -1199 680 -49 16 -110 17
-156 3z"/>
</g>
</svg>
