<svg xmlns="http://www.w3.org/2000/svg" viewBox="0 0 375 413.03"><defs><style>.cls-1{fill:#fff;fill-rule:evenodd;}</style></defs><g id="Layer_2" data-name="Layer 2"><g id="New_Layer" data-name="New Layer"><path class="cls-1" d="M177.1,2.63A24.68,24.68,0,0,0,165,18c-2.1,7.3-7.1,11-14.7,11-4.6,0-5.7-.4-9.8-4-6-5.2-9.5-7-15.3-7.7a23.23,23.23,0,0,0-23.9,13.3c-2.3,5.1-2.4,6.2-1.8,15.7.5,9.2.4,10.5-1.4,13.4-3.8,6-8.2,7.2-21.2,5.8-8.2-.9-12.7.4-18.2,5.4A23.48,23.48,0,0,0,50.8,89c0,6.4,1.7,10.6,6.7,16.1,9.2,10.3,6,21.9-7.5,26.8-7.7,2.8-11.7,6.3-14.6,12.6a22,22,0,0,0,.2,20.4c2.8,5.5,8.6,10.6,13.3,11.8,5.9,1.4,9.9,4.3,12,8.6a19.72,19.72,0,0,1,2.1,6.5c0,3.4-2.4,8.4-5.7,12.3-4.8,5.4-6.5,9.6-6.5,15.8,0,15.9,13.7,26.8,29.2,23.1,6.3-1.5,10.6-.8,14.5,2.5l3,2.5-48.7,48.3C21.9,322.93,0,345.23,0,345.83a5.78,5.78,0,0,0,1.8,3c1.4,1.4,7.2,2.5,27.6,5.2,14.2,1.9,26,3.9,26.2,4.4s1.9,12.5,3.8,26.4,4,25.9,4.6,26.7a4.57,4.57,0,0,0,2.9,1.5c.8,0,25.6-24,55.1-53.4l53.5-53.5,3,1.7c4,2.2,14.9,2.2,19-.1l3-1.6,53.5,53.5C283.5,389,308,413,308.6,413c3.7,0,4.3-2.5,7.9-28.9,1.9-14.5,3.6-26.5,3.8-26.6s11.5-1.6,25.2-3.4,26-3.7,27.3-4.1a3.56,3.56,0,0,0,2.2-3.1c0-1.4-14.8-17.2-47.4-50.3-26.1-26.4-47.5-48.6-47.7-49.1-.3-1.6,5.7-4.6,9.3-4.7,1.8,0,6.3.3,9.9.7,8.2.9,12.7-.4,18.2-5.4a23.59,23.59,0,0,0,8-18.2c-.1-6.2-1.9-10.5-6.8-16-9.2-10.3-6-21.9,7.5-26.8,7.6-2.8,11.2-5.9,14.4-12.3,6.7-13.4-.2-28.2-15.4-33.3-12.4-4.1-15.4-15.8-6.7-26,5.2-6.1,6.9-10.1,6.9-16.4,0-9.9-4.9-17.6-13.7-21.7-5.7-2.7-8.5-2.9-16.6-1.2-5.2,1.1-6,1-10.4-1.3-6.7-3.3-8.9-7.5-7.9-14.9,1.7-13,.5-18.9-5.5-25.3-4.5-4.9-9.8-7.1-17.1-7.1s-11.1,1.6-17.2,7c-4.4,3.9-9.4,5.5-14.1,4.4-6.5-1.4-9.9-4.9-12.1-12.4C206.3,2.53,190.6-4.07,177.1,2.63Zm17.5,7c4.2,2,6.6,5.3,8.8,12.1,3.4,10.2,15.3,17.6,25.8,15.9,5.1-.8,8.9-2.8,13.8-7.2s9.1-5.7,14.1-4.4c9.1,2.5,13.2,9.8,11,19.6a34.69,34.69,0,0,0-.7,9.9c.9,5.7,5.6,12.8,10.7,16.2,4.1,2.7,4.8,2.8,16.9,2.8,10.3,0,13.1.3,15.3,1.8a14.32,14.32,0,0,1,6.4,10c.8,5.1-.2,7.9-4.3,12.8-5.1,6.1-7.4,11.5-7.4,17.7,0,10.6,5.9,18.5,17.2,22.8,7.2,2.7,10,5.3,11.9,11.1a10.77,10.77,0,0,1,0,7.3c-1.8,5.9-4.6,8.6-11.9,11.4-18,6.9-22.9,25.4-10.5,39.7,4.2,4.7,5.3,7.2,5.3,11.4s-1.8,8.1-5.5,11.5c-2.6,2.4-3.2,2.5-15.3,2.5s-12.9.1-17.3,2.7c-5.2,3.1-10.5,10.2-11.5,15.5a31.19,31.19,0,0,0,.1,8.6c1.6,10.8,0,16.1-5.8,19.8-2.5,1.6-4.5,1.9-8.9,1.6-4.8-.3-6.2-.8-9.7-4-6.4-5.8-9.8-7.1-17.6-7.2-5.9,0-7.8.4-11.7,2.8-5.6,3.3-8,6.4-11.6,15.3-3.3,8.1-6.2,10.6-13.4,11.2-7.6.6-11.4-2.2-15-11.1s-6-12.1-11.3-15.3c-9.4-5.4-20.1-4.1-29.1,3.7-5.1,4.4-7.9,5.4-13.4,4.6a14.36,14.36,0,0,1-12.1-18.1c3.1-12.4-1.6-22.8-12.5-28.2-5.1-2.5-6.1-2.6-13.2-2-13.9,1.3-16.2.6-21-6.5-1.9-2.8-2.3-4.4-2-8.6s1.1-5.9,4.2-9.4c13.2-14.5,8.8-33.5-9.4-40.4-11.5-4.4-15.5-12.3-10.8-21.5,2.3-4.5,4-5.7,13.5-9.5a31.72,31.72,0,0,0,7.7-5.4c9.2-9.4,8.9-22.9-.8-33.5-7.2-7.9-5.5-19.5,3.6-24.2,2.4-1.2,4.9-1.4,13.1-.8,8,.5,11,.3,13.8-.9A25.36,25.36,0,0,0,107,60.83c1.9-4.4,2.1-6.1,1.5-11.3-1.7-13.2-.1-18.6,6.3-21.9s12.1-2.4,18.3,2.9C148.4,43.63,166,39,173.6,20c2.5-6.3,3.5-7.8,6.9-9.7A14.49,14.49,0,0,1,194.6,9.63ZM99,263.53c-1.9,8.3,1,16.6,7.6,22.5,5,4.4,9.3,6,15.7,6,6.8,0,11.2-1.8,17.1-6.9,5.3-4.6,10.1-5.9,15.6-4.2,4.3,1.3,8.7,5.8,9.6,9.9a40.86,40.86,0,0,0,2.5,6.3l1.8,3.5-49.3,49.3-49.3,49.3-.6-3.3c-.4-1.9-1.8-12.4-3.2-23.4-2.1-15.5-3.1-20.3-4.4-21.5-1.2-1-8.7-2.5-22.7-4.3-11.5-1.6-21.7-3.1-22.8-3.4-1.5-.4,6.8-9.2,40.5-42.9,23.3-23.3,42.5-42.2,42.6-42S99.6,260.93,99,263.53ZM361,343c0,.3-9.9,1.9-22.1,3.5s-23,3.4-24.2,4c-2,.9-2.4,3.1-5.4,24.5-1.8,12.9-3.2,23.7-3.3,24s-22.2-21.7-49.4-48.9l-49.5-49.5,1.8-3.5a52.13,52.13,0,0,0,3-7.4c1.4-4,5.9-8.1,10.4-9.2s9.4.4,14.4,4.7c9,7.8,17.9,9.2,27.8,4.3s15.2-15.8,12.6-25.9a44.89,44.89,0,0,1-1.1-5.3c0-.4,19.1,18.3,42.5,41.7S361,342.73,361,343Z"/><path class="cls-1" d="M168,56c-22,4.8-38,13.7-53.5,30.2-32,33.6-36.2,85.1-10.2,124a99.62,99.62,0,0,0,40.8,35.3c15.7,7.3,23.6,9,42.9,9,14-.1,17.8-.4,25-2.4a100.76,100.76,0,0,0,47.1-27.8c16.6-17.2,25.3-35.9,28-59.8,4.4-39.5-16.7-79.3-52.4-98.5C215.4,55,189.8,51.33,168,56Zm40.7,9.1a91.44,91.44,0,0,1,71,84.4c1.3,26-7.4,49.6-25.1,68.3-18.1,19.1-40.2,28.5-66.6,28.5s-48.5-9.4-66.6-28.5c-17.7-18.7-26.4-42.3-25.1-68.3,1.5-29.5,16.8-55.9,42-72.3C159,63.73,184,59.43,208.7,65.13Z"/><path class="cls-1" d="M184.8,92.73c-.9,1-5.3,9.5-9.8,19l-8.2,17.1-8.7,1.2c-32,4.5-35.1,5.4-33.7,9.7.3,1,7.1,8,15,15.5l14.3,13.7-3.3,19.3c-1.9,10.6-3.3,20.2-3.2,21.2a5.21,5.21,0,0,0,2.1,3c1.5.9,5.1-.6,20.3-8.4l18.4-9.5,18.3,9.3c10,5.1,18.7,9.3,19.3,9.3a5.29,5.29,0,0,0,2.4-1.6c1-1.3.6-5.4-2.1-22L222.6,169l14.2-14.3c14.8-14.8,16.6-17.8,12-19.7-1.9-.7-36.4-6.1-39.1-6-.4,0-4.8-8.2-9.7-18.2C189.9,90.23,188.5,88.53,184.8,92.73Zm10.8,27.9c3.8,8,7.3,14.9,8,15.5s7.6,1.8,15.5,2.9,15.4,2.3,16.7,2.6c2,.4.8,1.8-9.8,12-13.9,13.5-13.2,11.1-9.5,32,1.4,7.6,2.5,14.2,2.5,14.5s-6.7-2.9-15-7.2-15.5-7.9-16.2-7.8-7.8,3.5-15.8,7.8-14.6,7.8-14.7,7.7,1.1-7.8,2.6-17.1l2.9-17-12.2-12.2c-8.5-8.6-11.7-12.4-10.6-12.7.8-.3,8.2-1.5,16.5-2.6s15.3-2.4,15.8-2.7,4-7.2,7.9-15.4S187.6,106,188,106,191.8,112.63,195.6,120.63Z"/></g></g></svg>