<svg xmlns="http://www.w3.org/2000/svg" viewBox="0 0 188.96 189.56"><defs><style>.cls-1{fill:#fff;fill-rule:evenodd;}</style></defs><g id="Layer_2" data-name="Layer 2"><g id="New_Layer" data-name="New Layer"><path class="cls-1" d="M85.46.53c-28.7,5.3-48.5,32.6-44.2,60.7,4.9,31.2,35,51.9,65.1,44.8,27.1-6.4,45.5-33.2,41.3-60.2a52.94,52.94,0,0,0-16.1-30.6c-7.4-7-11.9-9.7-20.9-12.8C104.26.23,91.86-.67,85.46.53Zm18.2,6.1a49,49,0,0,1,38,39.6c4,23.8-11.8,47.5-35.7,53.8-26.8,6.9-54.5-11.7-58.8-39.6C42.26,28.53,72.16,0,103.66,6.63Z"/><path class="cls-1" d="M92.66,17.73a102.69,102.69,0,0,0-5.5,11l-4.5,9.6-6.9.7c-13.2,1.4-15.6,2-16.7,3.8-.9,1.5-.5,2.3,2.4,4.9,1.9,1.7,5.9,5.3,8.8,8.1l5.3,4.9-2,9.7c-2.5,11.4-2.6,14-.7,14.7.8.3,6-2,11.5-5.1l10.1-5.7,10.1,5.7c5.5,3.1,10.7,5.4,11.5,5.1,1.9-.7,1.8-3.3-.7-14.7l-2-9.7,5.3-4.9c2.9-2.8,6.9-6.4,8.8-8.1,2.9-2.6,3.3-3.4,2.4-4.9-1.1-1.8-3.5-2.4-16.7-3.8l-6.8-.7-5.2-10.6c-2.9-5.9-5.7-10.8-6.3-11A2.78,2.78,0,0,0,92.66,17.73ZM98,34.63c1.7,3.9,3.9,7.7,5,8.4s5.6,1.6,10,2l7.9.7L114,52l-6.9,6.2,1.7,8.9c.9,4.8,1.6,8.9,1.4,9a69.84,69.84,0,0,1-7.9-4.3l-7.8-4.5-7.7,4.5a76.12,76.12,0,0,1-8,4.3c-.2-.1.5-4.2,1.4-9l1.7-8.9L75,52l-6.9-6.3L76,45c4.4-.4,8.9-1.3,10-2s3.4-4.5,5-8.4,3.2-7.1,3.5-7.1S96.36,30.73,98,34.63Z"/><path class="cls-1" d="M7.76,55.93c-5.8,2.6-6.1,4.3-7.3,38.8-.6,19.5-.6,32.6-.1,34.6,1.6,5.6,4.6,9.3,18.1,22.7l13,13v11.1c0,8.3.4,11.5,1.4,12.3s6.8,1.1,18.7.9L69,189l.3-25.8c.3-31.1.8-29.5-14.2-42.6-5.7-5.1-11.1-10.3-12-11.6-2.8-4.3-10.1-5.1-15.3-1.7l-2.3,1.4V88.93c0-11-.5-21.6-1.1-23.7C22.06,56.93,14.76,52.83,7.76,55.93Zm9.9,8.6c1.5,3,1.8,6.5,1.8,24.9,0,20.1.1,21.8,2.2,26,2.6,5.4,25.9,29.6,27.8,28.9a5.25,5.25,0,0,0,2.4-2.1c.9-1.4-1-3.7-10.7-13.5-6.4-6.5-11.7-12.4-11.7-13,0-1.5,3.6-5.2,5.1-5.2.5,0,4.5,3.3,8.7,7.3s9.9,9,12.5,11.1c8.1,6.6,8.2,7,8.2,32.1v22l-13.2.3-13.3.3V162l-15-15c-9-9-15.4-16.2-16-18.1-.7-2.1-.7-12.9,0-33.9.8-26.7,1.2-31.1,2.7-32.7C11.76,59.43,15.66,60.33,17.66,64.53Z"/><path class="cls-1" d="M172,55.43a14.24,14.24,0,0,0-3.8,2.9c-3.9,4.3-4.6,8.8-4.7,30.6v20.9l-2.2-2c-4.8-4.3-12.8-3.3-16.2,1.9-.9,1.3-6.4,6.6-12.2,11.7-6.5,5.8-11.2,10.8-12.2,13-1.4,3.1-1.6,7.4-1.4,28.5.2,13.7.5,25.3.8,25.8.9,1.3,34.8,1,36.2-.4.8-.8,1.2-5,1.2-12.3V165l13-13c13.5-13.4,16.5-17.1,18-22.6,1.5-5.1-.7-65.5-2.5-68.9C183.66,56,176.76,53.53,172,55.43Zm7.9,6.9c2.4,2.7,4.4,62.5,2.2,67.5-.8,1.7-8,9.7-16,17.7L151.46,162v21.6l-13.2-.3L125,183v-21.5c0-15.9.4-22.3,1.4-24.7.7-1.8,3.9-5.4,7-8s8.8-7.8,12.8-11.5,7.7-6.8,8.2-6.8c1.5,0,5.1,3.7,5.1,5.2,0,.6-5.2,6.4-11.5,12.8s-11.5,12.1-11.5,12.7a4.34,4.34,0,0,0,1.6,2.4c1.3,1.1,3.3-.5,14-11.2,18-17.9,16.8-14.9,17.4-42.9.4-20.4.7-24,2.3-26.3C173.86,60,177.36,59.63,179.86,62.33Z"/></g></g></svg>