<?xml version="1.0" encoding="utf-8"?>
<!-- Generator: Adobe Illustrator 26.0.1, SVG Export Plug-In . SVG Version: 6.00 Build 0)  -->
<svg version="1.1" id="Layer_1" xmlns="http://www.w3.org/2000/svg" xmlns:xlink="http://www.w3.org/1999/xlink" x="0px" y="0px"
	 viewBox="0 0 200 200" style="enable-background:new 0 0 200 200;" xml:space="preserve">
<style type="text/css">
	.st0{fill:#40B298;stroke:#40B298;stroke-width:0.25;stroke-miterlimit:10;}
	.st1{fill:#261141;stroke:#010101;stroke-width:0.25;stroke-miterlimit:10;}
	.st2{fill:#FFFFFF;stroke:#010101;stroke-miterlimit:10;}
	.st3{fill:none;stroke:#010101;stroke-miterlimit:10;}
	.st4{fill:#261140;}
	.st5{font-family:'ArialMT';}
	.st6{font-size:40.3619px;}
</style>
<ellipse class="st0" cx="107.5" cy="99.7" rx="83.9" ry="84.6"/>
<path class="st1" d="M54.9,57.8H29.5c-1.6,0-2.9-1.3-2.9-2.9l0,0c0-1.6,1.3-2.9,2.9-2.9h25.4c1.6,0,2.9,1.3,2.9,2.9l0,0
	C57.8,56.4,56.5,57.8,54.9,57.8z"/>
<g>
	<path class="st2" d="M151.5,128.5H67.2c-3,0-5.4-2.5-5.4-5.5V66.9c0-3,2.4-5.5,5.4-5.5h84.4c3,0,5.4,2.5,5.4,5.5V123
		C157,126,154.5,128.5,151.5,128.5z"/>
	<line class="st3" x1="61.8" y1="67.7" x2="157" y2="67.7"/>
	<text transform="matrix(0.9182 0 0 1 80.8213 113.0488)" class="st4 st5 st6">&lt;/&gt;</text>
</g>
<path class="st1" d="M182.7,93.8h-20c-1.6,0-2.9-1.3-2.9-2.9l0,0c0-1.6,1.3-2.9,2.9-2.9h20c1.6,0,2.9,1.3,2.9,2.9l0,0
	C185.7,92.4,184.3,93.8,182.7,93.8z"/>
<path class="st1" d="M163.3,138.9h-42.5c-1.6,0-2.9-1.3-2.9-2.9l0,0c0-1.6,1.3-2.9,2.9-2.9h42.5c1.6,0,2.9,1.3,2.9,2.9l0,0
	C166.2,137.6,164.9,138.9,163.3,138.9z"/>
<path class="st1" d="M54.9,134.4H12.4c-1.6,0-2.9-1.3-2.9-2.9l0,0c0-1.6,1.3-2.9,2.9-2.9h42.5c1.6,0,2.9,1.3,2.9,2.9l0,0
	C57.8,133,56.5,134.4,54.9,134.4z"/>
<path class="st1" d="M104.6,155.1H69.1c-1.6,0-2.9-1.3-2.9-2.9l0,0c0-1.6,1.3-2.9,2.9-2.9h35.5c1.6,0,2.9,1.3,2.9,2.9l0,0
	C107.5,153.8,106.2,155.1,104.6,155.1z"/>
<path class="st1" d="M144.1,171.7H116c-1.6,0-2.9-1.3-2.9-2.9l0,0c0-1.6,1.3-2.9,2.9-2.9h28.1c1.6,0,2.9,1.3,2.9,2.9l0,0
	C147,170.4,145.7,171.7,144.1,171.7z"/>
<path class="st1" d="M47.6,109h-28c-1.6,0-2.9-1.3-2.9-2.9l0,0c0-1.6,1.3-2.9,2.9-2.9h28.1c1.6,0,2.9,1.3,2.9,2.9l0,0
	C50.6,107.6,49.3,109,47.6,109z"/>
<path class="st1" d="M122.8,48.7H76.5c-1.6,0-2.9-1.3-2.9-2.9l0,0c0-1.6,1.3-2.9,2.9-2.9h46.3c1.6,0,2.9,1.3,2.9,2.9l0,0
	C125.8,47.3,124.5,48.7,122.8,48.7z"/>
</svg>
